<?xml version="1.0" encoding="UTF-8"?>
<svg id="Layer_2" data-name="Layer 2" xmlns="http://www.w3.org/2000/svg" viewBox="0 0 197.35 107.64">
  <defs>
    <style>
      .cls-1 {
        fill: #e8e6e4;
      }

      .cls-1, .cls-2 {
        stroke-width: 0px;
      }

      .cls-2 {
        fill: #a6ce8a;
      }
    </style>
  </defs>
  <g id="Layer_1-2" data-name="Layer 1">
    <g>
      <path class="cls-1" d="m35.63,64.36c-5.66,0-12.1-1.13-16.04-2.77C7.66,56.59-.04,45.09,0,32.29.05,13.41,16.84.36,32.49,0c.24,0,.48,0,.71,0,13.29,0,23.63,8.39,27.05,16.84l-7.42,3c-2.39-5.9-10.25-12.06-20.16-11.83-11.64.26-24.63,10.31-24.67,24.3-.03,11.61,7.56,18.92,14.68,21.89,4.64,1.94,14.39,2.79,18.01,1.61,0-.02,0-.05,0-.08-.34-3.12-4.1-9.12-7.74-12.35-5.05-4.49-14.43-6.24-17.62-6.53l.37-7.98h33.02v8h-11.08c.21.18.42.36.63.54,4.6,4.09,9.74,11.74,10.37,17.45.57,5.18-2.37,7.41-4.93,8.37-2.09.78-4.96,1.12-8.07,1.12Z"/>
      <path class="cls-1" d="m56.14,64.11c-.04-.84-.04-1.76,0-2.73V29.01h8v9.66c3.63-4.52,8.74-8.25,15.82-10.03l1.95,7.76c-16.03,4.02-17.63,21.34-17.76,26.12v1.4l-8,.18Z"/>
      <path class="cls-1" d="m102.7,64.24c-.63,0-1.27-.04-1.92-.12-6.75-.85-12.45-6.09-14.52-13.36-2.43-8.51,2.25-15.11,3.21-16.34,1.04-1.32,4.9-5.72,11.34-6.87,4.77-.85,10.34.3,13.86,2.87,2.12,1.55,3.4,3.51,3.7,5.69.9,6.54-7.45,11.75-13.66,13.36-4.09,1.06-7.75.62-10.51-.12,1.16,3.18,3.83,6.37,7.58,6.84,4.44.56,8.94-3.2,8.98-3.24l5.23,6.06c-.67.58-6.29,5.24-13.29,5.24Zm-8-23.13c1.93.73,4.76,1.45,8,.61,3.88-1,6.94-3.37,7.63-4.54-.92-.94-4.48-2.4-8.12-1.75-3.81.68-6.18,3.59-6.44,3.91-.12.16-.59.79-1.07,1.77Z"/>
      <path class="cls-1" d="m138.78,64.45c-.63,0-1.27-.04-1.92-.12-6.74-.85-12.44-6.09-14.52-13.36-2.44-8.52,2.25-15.11,3.21-16.35,1.03-1.32,4.9-5.72,11.34-6.86,4.76-.85,10.34.3,13.86,2.87,2.12,1.55,3.4,3.51,3.7,5.69.89,6.55-7.45,11.75-13.66,13.36-4.09,1.06-7.75.62-10.51-.12,1.16,3.18,3.83,6.37,7.58,6.84,4.43.56,8.94-3.21,8.98-3.24l5.23,6.06c-.67.58-6.29,5.24-13.29,5.24Zm-8-23.13c1.93.73,4.77,1.45,8,.61,3.88-1,6.94-3.37,7.63-4.54-.92-.94-4.48-2.4-8.12-1.75-3.82.68-6.18,3.58-6.44,3.91-.12.16-.6.79-1.07,1.77Z"/>
      <rect class="cls-1" x="77.36" y="71.93" width="8" height="35"/>
      <path class="cls-1" d="m147.74,106.82c-3.22,0-6.99-.64-11.01-2.6l-.05-.02c-1.42-.55-2.46-1.69-2.89-3.18-1.21-4.19,3.48-9.99,3.53-10.05.78-.92,5.04-5.6,12.09-6.75,5.3-.87,11.36.37,15.08,3.09,2.57,1.88,3.37,3.99,3.59,5.43,1.04,6.99-8.46,11.95-14.7,13.43-1.56.37-3.48.66-5.64.66Zm-10.95-2.58c.08.03.14.05.19.06h0c-.06-.02-.12-.04-.18-.06Zm5.52-6.35c3.73,1.28,7,1.01,9.22.48,4.11-.98,7.48-3.26,8.42-4.5-1.21-1.01-5.13-2.44-9.25-1.77-4.45.73-7.16,3.89-7.27,4.02-.3.36-.74,1.06-1.12,1.76Z"/>
      <rect class="cls-1" x="161.12" y="71.93" width="8" height="34.83"/>
      <path class="cls-1" d="m169.13,64.27l-7.99-.34V29.18h8v12.44c.24-.35.49-.7.75-1.04,5.34-7.14,14.03-11.4,23.25-11.4h4v34.75h-8v-26.39c-5.16.95-9.78,3.73-12.84,7.82-6.18,8.26-7.16,18.8-7.17,18.9Z"/>
      <path class="cls-1" d="m14.13,107.64l-7.97-.67c.04-.52,1.15-12.88,8.74-23.02,5.34-7.14,14.03-11.4,23.25-11.4h4v34.75h-8v-26.39c-5.16.95-9.78,3.73-12.84,7.82-6.18,8.26-7.16,18.8-7.17,18.9Z"/>
      <path class="cls-1" d="m42.13,107.64l-7.97-.67c.04-.52,1.15-12.88,8.74-23.02,5.34-7.14,14.03-11.4,23.25-11.4h4v34.75h-8v-26.39c-5.16.95-9.78,3.73-12.84,7.82-6.18,8.26-7.16,18.8-7.17,18.9Z"/>
      <path class="cls-1" d="m99.59,107.13l-7.99-.34v-34.75h8v12.44c.24-.35.49-.7.75-1.04,5.34-7.14,14.03-11.4,23.25-11.4h4v34.75h-8v-26.39c-5.16.96-9.78,3.73-12.84,7.82-6.18,8.26-7.16,18.8-7.17,18.9Z"/>
      <path class="cls-2" d="m197.2,100.86c-.51,3.08-4.04,5.12-7.01,5.12h-.28c-5.87-.26-8.38-9.15-9.36-14.43-.16-.9.12-1.84.76-2.5.65-.66,1.58-.96,2.49-.82,3.24.52,9.1,1.99,11.94,5.94,1.39,1.93,1.88,4.18,1.46,6.69Z"/>
    </g>
  </g>
</svg>